<?xml version="1.0" encoding="utf-8"?>
<!-- Generator: Adobe Illustrator 23.0.2, SVG Export Plug-In . SVG Version: 6.00 Build 0)  -->
<svg version="1.1" id="图层_1" xmlns="http://www.w3.org/2000/svg" xmlns:xlink="http://www.w3.org/1999/xlink" x="0px" y="0px"
	 viewBox="0 0 1024 1024" style="enable-background:new 0 0 1024 1024;" xml:space="preserve">
<style type="text/css">
	.st0{fill-rule:evenodd;clip-rule:evenodd;fill:#101010;}
</style>
<g>
	<g id="search">
		<g>
			<path class="st0" d="M949.3,895.53L662.57,609.66c45.82-57.43,73.22-130.19,73.22-209.37c0-185.56-150.44-335.98-335.99-335.98
				c-185.57,0-335.98,150.42-335.98,335.98c0,185.56,150.42,335.99,335.98,335.99c79.16,0,151.92-27.39,209.35-73.2l286.63,285.77
				c14.62,14.56,38.44,14.43,53.22-0.3C963.79,933.83,963.93,910.09,949.3,895.53z M399.8,661.63
				c-144.33,0-261.32-117-261.32-261.33c0-144.33,116.98-261.32,261.32-261.32c144.33,0,261.33,117,261.33,261.32
				C661.13,544.63,544.13,661.63,399.8,661.63z"/>
		</g>
	</g>
</g>
</svg>
